<svg xmlns="http://www.w3.org/2000/svg" viewBox="0 0 120 120" role="img"><circle cx="60" cy="60" r="60" fill="#6b7280"/><clipPath id="c"><circle cx="60" cy="60" r="60"/></clipPath><g clip-path="url(#c)"><path d="M22 120 Q26 96 48 92 L72 92 Q94 96 98 120 Z" fill="#d1d5db"/><rect x="50" y="78" width="20" height="18" fill="#ffffff" stroke="#4b5563" stroke-width="1"/><ellipse cx="60" cy="56" rx="24" ry="30" fill="#ffffff" stroke="#4b5563" stroke-width="1.2"/><path d="M36 52 Q36 24 60 24 Q84 24 84 52 Q80 34 60 33 Q40 34 36 52 Z" fill="#d1d5db" stroke="#4b5563" stroke-width="1"/><ellipse cx="50" cy="54" rx="4" ry="2.2" fill="none" stroke="#4b5563" stroke-width="1.2"/><circle cx="50" cy="54" r="1.3" fill="#4b5563"/><ellipse cx="70" cy="54" rx="4" ry="2.2" fill="none" stroke="#4b5563" stroke-width="1.2"/><circle cx="70" cy="54" r="1.3" fill="#4b5563"/><path d="M45 49 Q50 46 55 49 M65 49 Q70 46 75 49" fill="none" stroke="#4b5563" stroke-width="1.2"/><path d="M60 56 L57 66 Q60 68 63 66" fill="none" stroke="#4b5563" stroke-width="1.1"/><path d="M49 73 Q60 84 71 73 Q60 76 49 73 Z" fill="#ffffff" stroke="#4b5563" stroke-width="1.2"/><line x1="54" y1="74.5" x2="54" y2="78" stroke="#4b5563" stroke-width="0.6"/><line x1="57.5" y1="74.5" x2="57.5" y2="78" stroke="#4b5563" stroke-width="0.6"/><line x1="60" y1="74.5" x2="60" y2="78" stroke="#4b5563" stroke-width="0.6"/><line x1="62.5" y1="74.5" x2="62.5" y2="78" stroke="#4b5563" stroke-width="0.6"/><line x1="66" y1="74.5" x2="66" y2="78" stroke="#4b5563" stroke-width="0.6"/></g></svg>
